<svg xmlns="http://www.w3.org/2000/svg" width="358.5" height="303.5" viewBox="0 0 1434 1214">
  <defs>
    <style>
      .cls-1 {
        fill: #fff;
        fill-rule: evenodd;
      }
    </style>
  </defs>
  <path id="Title_copy" data-name="Title copy" class="cls-1" d="M0,407.994C0,517.982,84.558,606.3,198.934,606.3s199.481-88.316,199.481-198.3-85.1-198.845-199.481-198.845S0,298.006,0,407.994Zm140.937,0c0-37.927,18.43-68.81,58-68.81s58.544,30.883,58.544,68.81-18.973,68.268-58.544,68.268S140.933,445.921,140.933,407.994Zm452.024,66.1c-15.72,0-30.356-9.752-30.356-26.007V218.359H436.3v257.9c0,87.232,79.683,129.494,156.657,129.494s156.657-42.262,156.657-129.494v-257.9h-126.3V448.088C623.313,464.343,608.677,474.1,592.957,474.1ZM933.614,218.359H1034.13v60.68H979.924V575.216L944.1,598.81,841.154,545.343v-266.3H786.948v-60.68h95.877V59.717H869.357V-0.012h76.232V59.717H933.614V218.359ZM913.763,618.792l-72.609,10.215V566.262l85.189,44.244ZM1078.5,423.114c0,45.419,34.91,81.889,82.12,81.889s82.34-36.47,82.34-81.889S1207.83,341,1160.62,341,1078.5,377.694,1078.5,423.114Zm58.18,0c0-15.662,7.61-28.416,23.94-28.416s24.16,12.754,24.16,28.416-7.83,28.191-24.16,28.191S1136.68,438.776,1136.68,423.114Zm113.8,78.309h57.28V446.607h41.17v-38.26h-41.17V390.223h44.75V344.8H1250.48V501.423ZM256.106,913.94h8.131l58,120.82H461.007L390,886.85c34.15-24.924,53.122-63.934,53.122-99.694,0-94.275-79.684-131.661-138.227-131.661H123.3V1034.76H256.106V913.94Zm10.841-156.584c18.973,0,35.777,8.669,35.777,28.716,0,18.964-17.346,26.549-35.235,26.549H256.106V757.356h10.841ZM639.11,911.231c-15.72,0-30.356-9.752-30.356-26.007V655.5h-126.3V913.4c0,87.231,79.684,129.491,156.658,129.491S795.767,1000.63,795.767,913.4V655.5h-126.3V885.224C669.465,901.479,654.83,911.231,639.11,911.231Zm202.7,144.939L910.46,1148l70.12-91.83V601.705L912.2,646.14,841.811,655.5V1056.17ZM1235.97,801.785L1171.46,655.5H1025.65V1034.76h138.77V886.308l65.59,148.452h144.73V655.5H1235.97v146.29Z"/>
</svg>
